<?xml version="1.0" encoding="UTF-8" standalone="no"?>
<!-- Created with Inkscape (http://www.inkscape.org/) -->

<svg
   xmlns:dc="http://purl.org/dc/elements/1.1/"
   xmlns:cc="http://creativecommons.org/ns#"
   xmlns:rdf="http://www.w3.org/1999/02/22-rdf-syntax-ns#"
   xmlns:svg="http://www.w3.org/2000/svg"
   xmlns="http://www.w3.org/2000/svg"
   xmlns:xlink="http://www.w3.org/1999/xlink"
   xmlns:sodipodi="http://sodipodi.sourceforge.net/DTD/sodipodi-0.dtd"
   xmlns:inkscape="http://www.inkscape.org/namespaces/inkscape"
   width="300mm"
   height="300mm"
   viewBox="0 0 300 300"
   version="1.1"
   id="svg3492"
   inkscape:version="0.92.4 (f8dce91, 2019-08-02)"
   sodipodi:docname="cloud.svg">
  <defs
     id="defs3486">
    <linearGradient
       inkscape:collect="always"
       xlink:href="#linearGradient3453"
       id="linearGradient3467"
       gradientUnits="userSpaceOnUse"
       gradientTransform="matrix(0.13729354,0,0,0.13729354,275.24525,531.98988)"
       x1="-352.66998"
       y1="-1695.5685"
       x2="-951.62555"
       y2="-3079.4739" />
    <linearGradient
       inkscape:collect="always"
       id="linearGradient3453">
      <stop
         style="stop-color:#48b2ff;stop-opacity:1"
         offset="0"
         id="stop3449" />
      <stop
         style="stop-color:#ffffff;stop-opacity:1"
         offset="1"
         id="stop3451" />
    </linearGradient>
  </defs>
  <sodipodi:namedview
     id="base"
     pagecolor="#ffffff"
     bordercolor="#666666"
     borderopacity="1.0"
     inkscape:pageopacity="0.0"
     inkscape:pageshadow="2"
     inkscape:zoom="0.35"
     inkscape:cx="-112.85714"
     inkscape:cy="560"
     inkscape:document-units="mm"
     inkscape:current-layer="layer1"
     showgrid="false"
     inkscape:window-width="1920"
     inkscape:window-height="1044"
     inkscape:window-x="0"
     inkscape:window-y="0"
     inkscape:window-maximized="1" />
  <metadata
     id="metadata3489">
    <rdf:RDF>
      <cc:Work
         rdf:about="">
        <dc:format>image/svg+xml</dc:format>
        <dc:type
           rdf:resource="http://purl.org/dc/dcmitype/StillImage" />
        <dc:title></dc:title>
      </cc:Work>
    </rdf:RDF>
  </metadata>
  <g
     inkscape:label="Layer 1"
     inkscape:groupmode="layer"
     id="layer1"
     transform="translate(0,3)">
    <path
       inkscape:connector-curvature="0"
       id="path3465"
       d="m 126.23937,72.822327 a 74.536902,74.536902 0 0 0 -68.036684,44.321853 51.890438,51.890438 0 0 0 -1.731192,-0.062 51.890438,51.890438 0 0 0 -51.8900604,51.89064 51.890438,51.890438 0 0 0 8.4526594,28.3543 h 30.887921 55.956209 190.017837 0.1824 a 51.890438,51.890438 0 0 0 4.99979,-22.0781 51.890438,51.890438 0 0 0 -51.89044,-51.89034 51.890438,51.890438 0 0 0 -8.85386,0.81486 28.965648,28.965648 0 0 0 -28.4349,-23.55621 28.965648,28.965648 0 0 0 -17.41116,5.85112 74.536902,74.536902 0 0 0 -62.25116,-33.646578 z"
       style="opacity:1;fill:url(#linearGradient3467);fill-opacity:1;fill-rule:nonzero;stroke:none;stroke-width:2.43511152;stroke-linecap:round;stroke-linejoin:round;stroke-miterlimit:4;stroke-dasharray:none;stroke-dashoffset:0;stroke-opacity:1;paint-order:normal" />
  </g>
</svg>
